<svg width="40" height="11" viewBox="0 0 40 11" fill="none" xmlns="http://www.w3.org/2000/svg">
    <g clip-path="url(#clip0_17_372)">
        <path d="M29.2897 8.50388V10.4135H23.0499V0.0446777H25.1685V8.50388H29.2897Z" fill="black"/>
        <path d="M34.6891 10.4295C31.7916 10.4295 29.4314 8.08878 29.4314 5.21475C29.4314 2.34073 31.7881 0 34.6891 0C37.59 0 39.9469 2.34073 39.9469 5.21475C39.9469 8.08878 37.5869 10.4295 34.6891 10.4295ZM34.6891 1.88408C32.8378 1.88408 31.3309 3.37856 31.3309 5.21475C31.3309 7.05094 32.8378 8.54541 34.6891 8.54541C36.5406 8.54541 38.0472 7.05094 38.0472 5.21475C38.0441 3.37856 36.5406 1.88408 34.6891 1.88408Z" fill="black"/>
        <path d="M16.2241 10.4295C13.3264 10.4295 10.9663 8.08878 10.9663 5.21475C10.9663 2.34073 13.3264 0 16.2241 0C19.1219 0 21.4819 2.34073 21.4819 5.21475C21.4819 8.08878 19.1251 10.4295 16.2241 10.4295ZM16.2241 1.88408C14.3728 1.88408 12.866 3.37856 12.866 5.21475C12.866 7.05094 14.3728 8.54541 16.2241 8.54541C18.0755 8.54541 19.5823 7.05094 19.5823 5.21475C19.5823 3.37856 18.0755 1.88408 16.2241 1.88408Z" fill="black"/>
        <path d="M9.96178 8.50388L9.41122 10.4135H7.73053C6.51991 10.4135 6.02084 9.75888 6.37503 8.52941L7.08016 6.07372H3.36781L2.11857 10.4135H0L2.98467 0.0446777H5.10325L3.90228 4.21838H5.2095L8.94112 0.0446777H11.2787L7.35703 4.21838H9.73641L8.64491 8.01209C8.558 8.31228 8.69644 8.50388 8.99909 8.50388H9.96178Z" fill="black"/>
    </g>
    <defs>
        <clipPath id="clip0_17_372">
            <rect width="40" height="10.625" fill="white"/>
        </clipPath>
    </defs>
</svg>
